# xmcd CD database file
#
# Track frame offsets:
#	150
#	22450
#	41587
#	63220
#	85922
#	109185
#	126410
#	149737
#	166060
#	187175
#	206852
#	229137
#	248777
#	268270
#	293550
#	309662
#
# Disc length: 4441 seconds
#
# Revision: 1
# Processed by: cddbd v1.5.1PL2 Copyright (c) Steve Scherf et al.
# Submitted via: CDex 1.51
#
DISCID=fc115710
DTITLE=Yoshimi Tendo - Kokoro
DYEAR=1900
DGENRE=
TTITLE0=jinsei shimijimi
TTITLE1=kyoshu
TTITLE2=chindon monogatari
TTITLE3=arubamu
TTITLE4=boukyo sigure
TTITLE5=koishite soro
TTITLE6=koiji
TTITLE7=umi wo wataru tori no youni
TTITLE8=tabi makura
TTITLE9=sake kizuna
TTITLE10=yoshimi jinngi
TTITLE11=ai oshiki jinsei ni
TTITLE12=ai densetsu
TTITLE13=tsukihi
TTITLE14=osaka tonbo
TTITLE15=kakko waruine
EXTD=
EXTT0=
EXTT1=
EXTT2=
EXTT3=
EXTT4=
EXTT5=
EXTT6=
EXTT7=
EXTT8=
EXTT9=
EXTT10=
EXTT11=
EXTT12=
EXTT13=
EXTT14=
EXTT15=
PLAYORDER=
